<svg id="Layer_1" data-name="Layer 1" xmlns="http://www.w3.org/2000/svg" viewBox="0 0 600 600"><defs><style>.cls-1{fill:#fff;}</style></defs><title>boat</title><path class="cls-1" d="M163,519,1.23,297.31h284.6v33H66.08L175.77,480.63c4.75-2.63,9-6.17,13.81-10.24,12.17-10.22,27.31-22.93,56-22.93s43.88,12.71,56.05,22.93c10.52,8.84,18.13,15.22,34.85,15.22s24.34-6.38,34.87-15.22c12.18-10.22,27.33-22.93,56.06-22.93s43.88,12.71,56.05,22.93c10.53,8.84,18.13,15.22,34.85,15.22,15.55,0,23-5.27,33.37-13.94a40.77,40.77,0,0,0,14.76-31.3V334.57H340.91V21.77L580.77,133.05,421.07,249.13l-19.38-26.67L516,139.36l-142.17-66V301.61H599.44V440.37A73.64,73.64,0,0,1,572.84,497c-10.3,8.61-25.87,21.62-54.5,21.62s-43.87-12.72-56-22.94c-10.53-8.84-18.13-15.22-34.86-15.22s-24.34,6.38-34.87,15.22c-12.17,10.22-27.32,22.94-56.06,22.94s-43.87-12.72-56.05-22.94c-10.52-8.84-18.12-15.22-34.85-15.22s-24.31,6.38-34.83,15.22c-9.4,7.89-20.05,16.83-37.18,20.86Z"/><path class="cls-1" d="M337.67,589.51c-28.85,0-44.28-11.7-56.68-21.09-11.15-8.45-20-15.12-38.9-15.12s-27.75,6.67-38.9,15.11c-12.41,9.4-27.84,21.1-56.69,21.1s-44.29-11.7-56.7-21.09a106.93,106.93,0,0,0-13.59-9.27l14-25.93a132.07,132.07,0,0,1,17.38,11.71c11.15,8.44,20,15.11,38.9,15.11s27.75-6.68,38.9-15.12c12.4-9.39,27.84-21.09,56.69-21.09s44.29,11.7,56.69,21.1c11.15,8.44,20,15.11,38.89,15.11s27.76-6.67,38.91-15.12c12.4-9.39,27.84-21.09,56.7-21.09s44.28,11.69,56.69,21.09c2.34,1.77,4.68,3.55,7.12,5.24l-16.8,24.22c-2.78-1.93-5.45-4-8.12-6C461,560,452.22,553.3,433.28,553.3s-27.76,6.67-38.91,15.12C382,577.81,366.53,589.51,337.67,589.51Z"/></svg>
