<svg xmlns="http://www.w3.org/2000/svg" viewBox="0 0 133.28 66.59"><defs><style>.cls-1,.cls-7{fill:none;stroke:#a1acc0;stroke-width:1.75px;}.cls-1{stroke-linejoin:bevel;}.cls-2,.cls-3,.cls-4,.cls-5{isolation:isolate;}.cls-2{font-size:11.18px;letter-spacing:0.07em;}.cls-2,.cls-4,.cls-5,.cls-6{fill:#a1acc0;}.cls-2,.cls-4,.cls-5{font-family:Avenir-Heavy, Avenir;}.cls-4,.cls-5{font-size:4.86px;}.cls-4{letter-spacing:0.12em;}.cls-5{letter-spacing:0.11em;}.cls-7{stroke-miterlimit:10;}</style></defs><title>Asset 15</title><g id="Layer_2" data-name="Layer 2"><g id="Layer_1-2" data-name="Layer 1"><rect class="cls-1" x="0.88" y="0.88" width="100.76" height="64.84" rx="7.62" ry="7.62"/><rect class="cls-1" x="4.78" y="4.71" width="92.96" height="57.16" rx="3.75" ry="3.75"/><text class="cls-2" transform="translate(16.84 41.17)">EMBARKED</text><line class="cls-1" x1="16.84" y1="44.9" x2="83.11" y2="44.9"/><line class="cls-1" x1="16.84" y1="29.34" x2="83.11" y2="29.34"/><g class="cls-3"><text class="cls-4" transform="translate(24.73 51.36)">PO</text><text class="cls-5" transform="translate(32.96 51.36)">R</text><text class="cls-4" transform="translate(36.55 51.36)">T OF HARBOR</text></g><path class="cls-1" d="M55,18.55C55,20.8,51,22.63,51,22.63s-4.08-1.83-4.08-4.08"/><line class="cls-1" x1="50.95" y1="22.77" x2="50.95" y2="11.5"/><line class="cls-1" x1="48.88" y1="13.24" x2="53.15" y2="13.24"/><path class="cls-6" d="M12.59,36.53l1.46-.47.28.86-1.47.48.9,1.26L13,39.2,12.12,38l-.91,1.24-.72-.55.93-1.22-1.48-.51.28-.86,1.47.5V35h.9Z"/><path class="cls-6" d="M90.9,36.53l1.45-.47.27.86-1.45.48.91,1.26-.73.54L90.42,38l-.9,1.24-.73-.55.93-1.22-1.48-.51.27-.86,1.48.5V35h.91Z"/><path class="cls-7" d="M85.54,9.87c4.93,0,4.93,3,9.85,3s4.92-3,9.84-3,4.93,3,9.85,3,4.92-3,9.85-3c4.31,0,4.84,2.3,8.21,2.88"/><path class="cls-7" d="M85.54,17.21c4.93,0,4.93,3,9.85,3s4.92-3,9.84-3,4.93,3,9.85,3,4.92-3,9.85-3c4.31,0,4.84,2.31,8.21,2.89"/><path class="cls-7" d="M85.54,24.22c4.93,0,4.93,3,9.85,3s4.92-3,9.84-3,4.93,3,9.85,3,4.92-3,9.85-3c4.31,0,4.84,2.3,8.21,2.88"/></g></g></svg>